<?xml version="1.0" standalone="no"?>
<!DOCTYPE svg PUBLIC "-//W3C//DTD SVG 20010904//EN"
 "http://www.w3.org/TR/2001/REC-SVG-20010904/DTD/svg10.dtd">
<svg version="1.0" xmlns="http://www.w3.org/2000/svg"
 width="385.000000pt" height="180.000000pt" viewBox="0 0 385.000000 180.000000"
 preserveAspectRatio="xMidYMid meet">

<g transform="translate(0.000000,180.000000) scale(0.100000,-0.100000)"
fill="#000000" stroke="none">
<path d="M223 1411 c-141 -70 -193 -134 -180 -217 6 -34 41 -94 56 -94 5 0 11
12 14 28 11 51 96 159 112 140 5 -6 -15 -429 -21 -439 -3 -6 -19 -7 -35 -4
-26 6 -29 4 -29 -17 0 -46 11 -67 38 -70 l26 -3 -3 -151 c-1 -90 2 -168 9
-193 11 -41 12 -42 43 -35 18 3 48 15 68 25 36 18 36 19 29 61 -5 24 -10 99
-12 167 l-3 124 55 13 c30 7 58 13 62 14 7 0 53 -116 83 -210 60 -187 141
-257 250 -215 47 18 58 39 26 50 -32 10 -114 106 -145 170 -31 64 -96 233 -96
251 0 7 16 24 35 39 52 39 102 120 121 195 31 124 -1 239 -91 318 -55 48 -115
70 -212 79 -40 3 -73 10 -73 14 0 17 -37 6 -127 -40z m272 -121 c117 -64 141
-235 51 -353 -31 -41 -110 -83 -173 -93 l-42 -6 6 238 c4 156 10 241 17 246
19 13 89 -3 141 -32z"/>
<path d="M3158 1236 c-24 -18 -40 -65 -33 -98 16 -71 123 -60 159 16 21 44 20
52 -4 76 -23 23 -95 27 -122 6z m88 -48 c9 -13 -52 -71 -66 -63 -16 10 -11 25
16 50 30 28 40 30 50 13z"/>
<path d="M1020 1051 c-110 -34 -186 -137 -209 -282 -13 -79 -2 -152 31 -213
44 -79 162 -110 249 -66 46 24 96 88 105 137 6 34 -4 61 -14 33 -3 -8 -26 -36
-52 -62 -44 -45 -51 -48 -97 -48 -39 0 -56 5 -76 24 -22 21 -55 102 -45 112 2
2 21 -1 42 -7 75 -21 185 60 221 161 48 136 -34 247 -155 211z m68 -63 c15
-15 16 -87 1 -125 -16 -42 -48 -73 -104 -99 -69 -33 -78 -31 -70 9 12 58 52
135 95 181 44 48 58 54 78 34z"/>
<path d="M1469 1045 c-191 -61 -252 -246 -107 -321 15 -8 68 -23 117 -35 107
-24 126 -36 118 -71 -13 -49 -119 -75 -183 -46 -16 7 -34 29 -44 53 l-17 40
-31 -33 c-43 -46 -52 -96 -22 -127 48 -51 192 -58 272 -13 52 29 78 64 85 114
8 59 -26 94 -123 129 -151 55 -192 152 -99 234 38 33 90 42 113 19 15 -15 16
-63 1 -90 -13 -24 -10 -27 33 -34 43 -7 64 11 73 65 7 44 -12 94 -44 110 -34
18 -95 21 -142 6z"/>
<path d="M1941 1049 c-90 -27 -157 -104 -193 -222 -36 -121 -14 -251 54 -314
55 -51 161 -59 223 -17 50 34 71 60 90 113 20 58 5 72 -26 24 -76 -118 -229
-109 -246 15 -6 46 -6 46 32 32 62 -24 172 46 215 135 39 81 27 185 -25 219
-31 20 -84 27 -124 15z m82 -90 c10 -44 -4 -105 -33 -142 -19 -24 -78 -57
-129 -72 -23 -7 -24 -6 -18 31 14 87 114 230 155 222 9 -2 20 -18 25 -39z"/>
<path d="M2660 1023 c-19 -8 -36 -16 -37 -17 -1 -1 4 -22 11 -46 7 -25 19 -95
25 -156 12 -116 36 -205 77 -286 23 -45 27 -48 63 -48 50 0 80 24 119 98 60
113 101 244 117 373 6 45 4 59 -10 72 -20 21 -36 21 -81 2 -30 -12 -34 -17
-25 -34 15 -28 14 -108 -4 -188 -24 -117 -74 -243 -96 -243 -25 0 -44 99 -59
310 -6 85 -16 160 -22 167 -13 16 -34 15 -78 -4z"/>
<path d="M2470 1019 c-38 -15 -79 -59 -107 -112 -13 -27 -26 -47 -27 -45 -1 1
0 36 3 76 6 70 6 72 -17 72 -12 0 -38 -6 -56 -14 l-33 -14 -6 -137 c-10 -199
-9 -333 3 -356 12 -21 37 -24 72 -8 23 10 24 15 24 122 0 123 19 198 69 263
45 59 101 38 99 -37 l-1 -39 27 17 c16 9 38 34 50 55 28 49 21 99 -20 140 -30
30 -41 32 -80 17z"/>
<path d="M3215 1013 c-11 -2 -35 -9 -53 -15 l-33 -10 3 -253 c2 -139 6 -257
11 -261 4 -4 24 -3 45 2 l37 9 8 105 c4 58 14 174 22 259 8 85 12 158 9 163
-5 8 -16 9 -49 1z"/>
<path d="M3550 998 c-60 -30 -130 -102 -159 -162 -78 -167 -21 -356 107 -356
47 0 107 34 136 77 26 38 28 37 40 -19 9 -40 33 -58 75 -58 50 0 68 20 39 44
-20 18 -20 22 -13 257 l7 239 -29 0 c-53 0 -61 -15 -73 -135 -14 -143 -34
-206 -83 -261 -45 -52 -76 -57 -106 -18 -41 52 -19 187 43 268 14 18 47 48 75
65 46 30 49 34 39 57 -14 30 -39 31 -98 2z"/>
</g>
</svg>
